# xmcd
#
# Track frame offsets: 
#        150
#        21148
#        37942
#        52660
#        76536
#        99439
#        117239
#        141437
#        159671
#        177575
#        204978
#        223712
#        250019
#
# Disc length: 3543 seconds
#
# Revision: 0
# Processed by: cddbd v1.5.2PL0 Copyright (c) Steve Scherf et al.
# Submitted via: ExactAudioCopy v0.95a5
#
DISCID=a20dd50d
DTITLE=The Hoodogang - Go ahead'n'scratch!
DYEAR=2005
DGENRE=Blues
TTITLE0=One more drink
TTITLE1=Go ahead'n'scratch!
TTITLE2=What about me
TTITLE3=You hoodooed me
TTITLE4=Never meant to hurt you
TTITLE5=Cannot take it
TTITLE6=Laptop boogie
TTITLE7=Her and you
TTITLE8=Goin'to NY
TTITLE9=Complicated woman
TTITLE10=The Lesson
TTITLE11=Crazy world
TTITLE12=Piste13
EXTD=
EXTT0=
EXTT1=
EXTT2=
EXTT3=
EXTT4=
EXTT5=
EXTT6=
EXTT7=
EXTT8=
EXTT9=
EXTT10=
EXTT11=
EXTT12=
PLAYORDER=
